<?xml version="1.0" encoding="UTF-8" standalone="no"?>
<!-- Created with Inkscape (http://www.inkscape.org/) -->

<svg
   width="239.423mm"
   height="49.047001mm"
   viewBox="0 0 239.423 49.047001"
   version="1.1"
   id="svg1"
   sodipodi:docname="Logo.svg"
   inkscape:version="1.3 (0e150ed6c4, 2023-07-21)"
   inkscape:export-filename="Logo.png"
   inkscape:export-xdpi="150"
   inkscape:export-ydpi="150"
   xmlns:inkscape="http://www.inkscape.org/namespaces/inkscape"
   xmlns:sodipodi="http://sodipodi.sourceforge.net/DTD/sodipodi-0.dtd"
   xmlns="http://www.w3.org/2000/svg"
   xmlns:svg="http://www.w3.org/2000/svg">
  <sodipodi:namedview
     id="namedview1"
     pagecolor="#ffffff"
     bordercolor="#000000"
     borderopacity="0.25"
     inkscape:showpageshadow="2"
     inkscape:pageopacity="0.0"
     inkscape:pagecheckerboard="0"
     inkscape:deskcolor="#d1d1d1"
     inkscape:document-units="mm"
     inkscape:zoom="2.1362816"
     inkscape:cx="352.94972"
     inkscape:cy="106.2594"
     inkscape:window-width="3840"
     inkscape:window-height="2074"
     inkscape:window-x="0"
     inkscape:window-y="46"
     inkscape:window-maximized="1"
     inkscape:current-layer="layer1" />
  <defs
     id="defs1" />
  <g
     inkscape:label="Ebene 1"
     inkscape:groupmode="layer"
     id="layer1">
    <g
       id="g3"
       transform="translate(-29.350637,-130.22566)">
      <path
         style="font-weight:800;font-size:50.8px;line-height:0;font-family:Inter;-inkscape-font-specification:'Inter Ultra-Bold';letter-spacing:-3.20146px;stroke-width:0.264583"
         d="m 35.513249,173.66243 v -27.70909 h 8.388495 v 5.08721 h 0.306676 c 0.577273,-1.68371 1.55142,-3.01264 2.922443,-3.98679 1.371023,-0.97414 3.006629,-1.46122 4.906818,-1.46122 1.924243,0 3.571875,0.49309 4.942898,1.47926 1.371023,0.98618 2.242945,2.30909 2.615767,3.96875 h 0.288636 c 0.51714,-1.64763 1.527367,-2.96453 3.030682,-3.95071 1.503314,-0.9982 3.277225,-1.4973 5.321733,-1.4973 2.62178,0 4.750473,0.84186 6.386079,2.52557 1.635606,1.67169 2.453409,3.96875 2.453409,6.89119 v 18.65313 h -8.821449 v -16.63267 c 0,-1.38305 -0.354782,-2.43537 -1.064346,-3.15696 -0.709565,-0.73362 -1.629593,-1.10043 -2.760085,-1.10043 -1.214678,0 -2.170786,0.39688 -2.868324,1.19063 -0.685511,0.78172 -1.028267,1.83404 -1.028267,3.15696 v 16.54247 h -8.478693 v -16.72287 c 0,-1.28684 -0.348769,-2.30308 -1.046307,-3.04872 -0.697538,-0.74565 -1.617566,-1.11847 -2.760085,-1.11847 -0.769697,0 -1.449195,0.18641 -2.038494,0.55924 -0.589299,0.36079 -1.05232,0.87793 -1.389063,1.55142 -0.324716,0.67348 -0.487074,1.46724 -0.487074,2.38125 v 16.39815 z m 56.78077,0.52316 c -2.910417,0 -5.411932,-0.59531 -7.504546,-1.78594 -2.080587,-1.20265 -3.686126,-2.87434 -4.816619,-5.01506 -1.118466,-2.15275 -1.677699,-4.64825 -1.677699,-7.4865 0,-2.85029 0.559233,-5.34579 1.677699,-7.48651 1.130493,-2.15275 2.736032,-3.82444 4.816619,-5.01506 2.092614,-1.20265 4.594129,-1.80398 7.504546,-1.80398 2.910417,0 5.405918,0.60133 7.486505,1.80398 2.092616,1.19062 3.698156,2.86231 4.816626,5.01506 1.13049,2.14072 1.69574,4.63622 1.69574,7.48651 0,2.83825 -0.56525,5.33375 -1.69574,7.4865 -1.11847,2.14072 -2.72401,3.81241 -4.816626,5.01506 -2.080587,1.19063 -4.576088,1.78594 -7.486505,1.78594 z m 0.05412,-6.65668 c 1.058333,0 1.954309,-0.32472 2.687926,-0.97415 0.733617,-0.64943 1.29285,-1.55142 1.677699,-2.70596 0.396875,-1.15455 0.595313,-2.48949 0.595313,-4.00483 0,-1.53939 -0.198438,-2.88636 -0.595313,-4.04091 -0.384849,-1.15455 -0.944082,-2.05654 -1.677699,-2.70597 -0.733617,-0.64943 -1.629593,-0.97415 -2.687926,-0.97415 -1.094413,0 -2.020454,0.32472 -2.778125,0.97415 -0.745644,0.64943 -1.316903,1.55142 -1.713778,2.70597 -0.384849,1.15455 -0.577273,2.50152 -0.577273,4.04091 0,1.51534 0.192424,2.85028 0.577273,4.00483 0.396875,1.15454 0.968134,2.05653 1.713778,2.70596 0.757671,0.64943 1.683712,0.97415 2.778125,0.97415 z m 24.092711,-9.66932 v 15.80284 h -8.82145 v -27.70909 h 8.3885 v 5.08721 h 0.30667 c 0.61335,-1.69574 1.65966,-3.02467 3.13892,-3.98679 1.47926,-0.97414 3.24115,-1.46122 5.28566,-1.46122 1.94829,0 3.63802,0.43897 5.06917,1.31691 1.44319,0.86591 2.56165,2.08058 3.3554,3.64403 0.80577,1.55142 1.20265,3.36743 1.19063,5.44802 v 17.66093 h -8.82145 v -15.92912 c 0.012,-1.53939 -0.37886,-2.74205 -1.17259,-3.60795 -0.78172,-0.86591 -1.87012,-1.29887 -3.2652,-1.29887 -0.92604,0 -1.74384,0.20445 -2.45341,0.61335 -0.69753,0.39688 -1.23873,0.96814 -1.62358,1.71378 -0.37282,0.74565 -0.56524,1.64764 -0.57727,2.70597 z m 35.83664,-11.90625 v 6.49432 h -17.48054 v -6.49432 z m -13.81847,-6.63864 h 8.82145 v 25.63452 c 0,0.54119 0.0842,0.98016 0.25256,1.31691 0.18039,0.32471 0.43896,0.55923 0.77571,0.70355 0.33674,0.13229 0.73963,0.19843 1.20866,0.19843 0.33674,0 0.69152,-0.0301 1.06435,-0.0902 0.38485,-0.0722 0.67348,-0.13229 0.86591,-0.1804 l 1.33494,6.36804 c -0.42093,0.12027 -1.01624,0.2706 -1.78594,0.45099 -0.75767,0.1804 -1.66567,0.29465 -2.724,0.34276 -2.06856,0.0962 -3.84247,-0.14432 -5.32174,-0.72159 -1.46723,-0.5893 -2.59171,-1.50332 -3.37343,-2.74205 -0.7697,-1.23873 -1.14252,-2.79617 -1.11847,-4.6723 z m 15.12693,34.34773 v -27.70909 h 8.82145 v 27.70909 z m 11.21229,0 v -27.70909 h 8.3885 v 5.08721 h 0.30667 c 0.57727,-1.68371 1.55142,-3.01264 2.92245,-3.98679 1.37102,-0.97414 3.00662,-1.46122 4.90681,-1.46122 1.92425,0 3.57188,0.49309 4.9429,1.47926 1.37103,0.98618 2.24295,2.30909 2.61577,3.96875 h 0.28864 c 0.51714,-1.64763 1.52737,-2.96453 3.03068,-3.95071 1.50331,-0.9982 3.27722,-1.4973 5.32173,-1.4973 2.62178,0 4.75047,0.84186 6.38608,2.52557 1.63561,1.67169 2.45341,3.96875 2.45341,6.89119 v 18.65313 h -8.82145 v -16.63267 c 0,-1.38305 -0.35478,-2.43537 -1.06435,-3.15696 -0.70956,-0.73362 -1.62959,-1.10043 -2.76008,-1.10043 -1.21468,0 -2.17079,0.39688 -2.86833,1.19063 -0.68551,0.78172 -1.02826,1.83404 -1.02826,3.15696 v 16.54247 h -8.4787 v -16.72287 c 0,-1.28684 -0.34877,-2.30308 -1.0463,-3.04872 -0.69754,-0.74565 -1.61757,-1.11847 -2.76009,-1.11847 -0.76969,0 -1.44919,0.18641 -2.03849,0.55924 -0.5893,0.36079 -1.05232,0.87793 -1.38906,1.55142 -0.32472,0.67348 -0.48708,1.46724 -0.48708,2.38125 v 16.39815 z m 61.72367,-11.96037 v -15.74872 h 8.80341 v 27.70909 h -8.40654 v -5.15937 h -0.28863 c -0.61335,1.69574 -1.65966,3.04271 -3.13892,4.04091 -1.46723,0.98617 -3.24114,1.47926 -5.32173,1.47926 -1.88817,0 -3.54783,-0.43296 -4.97898,-1.29887 -1.43115,-0.86591 -2.54361,-2.07457 -3.33736,-3.62599 -0.79375,-1.56345 -1.19663,-3.39148 -1.20866,-5.48409 v -17.66094 h 8.82144 v 15.92912 c 0.012,1.50331 0.40888,2.68793 1.19063,3.55384 0.78172,0.86591 1.84607,1.29886 3.19304,1.29886 0.87793,0 1.66567,-0.19242 2.36321,-0.57727 0.70957,-0.39688 1.2688,-0.96814 1.6777,-1.71378 0.42093,-0.75767 0.63139,-1.67169 0.63139,-2.74205 z m 35.40361,-7.28807 -8.09986,0.21648 c -0.0842,-0.57727 -0.31268,-1.0884 -0.68551,-1.53338 -0.37282,-0.45701 -0.85989,-0.81179 -1.46122,-1.06435 -0.5893,-0.26458 -1.27481,-0.39687 -2.05653,-0.39687 -1.02225,0 -1.89418,0.20445 -2.61577,0.61335 -0.70957,0.4089 -1.05834,0.96212 -1.04631,1.65966 -0.012,0.54119 0.20448,1.01022 0.64943,1.4071 0.45701,0.39688 1.2688,0.71558 2.43537,0.95611 l 5.33978,1.01023 c 2.76609,0.52917 4.82263,1.4071 6.1696,2.63381 1.35899,1.2267 2.0445,2.85028 2.05653,4.87073 -0.012,1.90019 -0.57725,3.55384 -1.69574,4.96094 -1.10643,1.40711 -2.62177,2.50152 -4.54602,3.28324 -1.92424,0.7697 -4.12509,1.15455 -6.60256,1.15455 -3.95672,0 -7.0776,-0.81179 -9.36264,-2.43537 -2.27301,-1.63561 -3.57187,-3.82443 -3.89659,-6.56648 l 8.71321,-0.21648 c 0.19243,1.01023 0.69153,1.77992 1.4973,2.30909 0.80578,0.52917 1.83405,0.79375 3.0848,0.79375 1.13049,0 2.05052,-0.21046 2.76009,-0.63139 0.70957,-0.42093 1.07036,-0.98016 1.08239,-1.6777 -0.012,-0.62538 -0.28861,-1.12448 -0.82983,-1.4973 -0.54119,-0.38485 -1.38906,-0.68551 -2.54361,-0.90199 l -4.83466,-0.92003 c -2.77813,-0.50511 -4.84669,-1.43717 -6.20568,-2.79616 -1.359,-1.37102 -2.03249,-3.11486 -2.02046,-5.23154 -0.012,-1.85208 0.48109,-3.43357 1.47926,-4.74446 0.99821,-1.32292 2.41734,-2.33314 4.25739,-3.03068 1.84006,-0.69754 4.01085,-1.04631 6.51236,-1.04631 3.75227,0 6.7108,0.78774 8.87557,2.36321 2.16477,1.56345 3.36141,3.7162 3.58991,6.45824 z"
         id="text1"
         aria-label="montimus"
         sodipodi:nodetypes="cccccssscccscsccscscsccsssccsccsccsccsccsccssscscssccsccsccccccccscccccccsccccccccccsccscccccccccccccccccccssscccscsccscscsccsssccsccscccccccsscccccssccsccccscccccccccscccssscccccccsscc" />
      <g
         id="g2"
         transform="translate(0.72288543,55.249259)">
        <path
           d="m 157.3053,89.423308 c -1.37625,0 -2.55876,-0.454296 -3.54752,-1.362887 -0.98875,-0.921953 -1.48313,-2.030969 -1.48313,-3.327048 0,-1.282717 0.49438,-2.378373 1.48313,-3.286964 0.98876,-0.921953 2.17127,-1.382929 3.54752,-1.382929 1.38961,0 2.57212,0.460976 3.54752,1.382929 0.98875,0.908591 1.48313,2.004247 1.48313,3.286964 0,1.296079 -0.49438,2.405095 -1.48313,3.327048 -0.9754,0.908591 -2.15791,1.362887 -3.54752,1.362887 z"
           style="font-weight:800;font-size:50.8px;line-height:0;font-family:Inter;-inkscape-font-specification:'Inter Ultra-Bold';letter-spacing:-3.20146px;fill:#079a3b;fill-opacity:0.397129;stroke-width:0.293956"
           id="path2" />
        <path
           d="m 157.3053,88.260136 c -1.03419,0 -1.92279,-0.341383 -2.6658,-1.024148 -0.743,-0.692805 -1.11451,-1.52618 -1.11451,-2.500125 0,-0.963903 0.37151,-1.787238 1.11451,-2.470003 0.74301,-0.692805 1.63161,-1.039208 2.6658,-1.039208 1.04423,0 1.93283,0.346403 2.6658,1.039208 0.743,0.682765 1.11451,1.5061 1.11451,2.470003 0,0.973945 -0.37151,1.80732 -1.11451,2.500125 -0.73297,0.682765 -1.62157,1.024148 -2.6658,1.024148 z"
           style="font-weight:800;font-size:50.8px;line-height:0;font-family:Inter;-inkscape-font-specification:'Inter Ultra-Bold';letter-spacing:-3.20146px;fill:#08a941;fill-opacity:1;stroke-width:0.220894"
           id="path1" />
      </g>
    </g>
    <g
       id="g1"
       transform="translate(-234.6933,-173.07622)"
       style="display:none">
      <g
         id="g10"
         transform="translate(48.071803,32.434385)">
        <path
           d="m 67.284252,191.57767 v -27.70908 h 8.388495 v 5.08722 h 0.306676 c 0.577273,-1.68372 1.55142,-3.01265 2.922443,-3.98679 1.371023,-0.97415 3.006629,-1.46123 4.906818,-1.46123 1.924243,0 3.571875,0.49309 4.942898,1.47927 1.371023,0.98617 2.242945,2.30909 2.615767,3.96875 h 0.288636 c 0.51714,-1.64764 1.527367,-2.96454 3.030682,-3.95071 1.503314,-0.99821 3.277225,-1.49731 5.321733,-1.49731 2.62178,0 4.75047,0.84186 6.38608,2.52557 1.63561,1.67169 2.45341,3.96875 2.45341,6.8912 v 18.65311 h -8.82145 v -16.63266 c 0,-1.38305 -0.354783,-2.43537 -1.064347,-3.15696 -0.709565,-0.73362 -1.629593,-1.10043 -2.760085,-1.10043 -1.214678,0 -2.170786,0.39688 -2.868324,1.19063 -0.685511,0.78172 -1.028267,1.83404 -1.028267,3.15696 v 16.54246 h -8.478693 v -16.72286 c 0,-1.28684 -0.348769,-2.30308 -1.046307,-3.04872 -0.697538,-0.74564 -1.617566,-1.11847 -2.760085,-1.11847 -0.769697,0 -1.449195,0.18641 -2.038494,0.55924 -0.589299,0.36079 -1.05232,0.87793 -1.389063,1.55142 -0.324716,0.67348 -0.487074,1.46724 -0.487074,2.38125 v 16.39814 z"
           style="font-weight:800;font-size:50.8px;line-height:0;font-family:Inter;-inkscape-font-specification:'Inter Ultra-Bold';letter-spacing:-3.20146px;stroke-width:0.264583"
           id="path1-6" />
        <g
           id="g4"
           transform="translate(-46.101922,76.628861)">
          <path
             d="m 157.3053,89.423308 c -1.37625,0 -2.55876,-0.454296 -3.54752,-1.362887 -0.98875,-0.921953 -1.48313,-2.030969 -1.48313,-3.327048 0,-1.282717 0.49438,-2.378373 1.48313,-3.286964 0.98876,-0.921953 2.17127,-1.382929 3.54752,-1.382929 1.38961,0 2.57212,0.460976 3.54752,1.382929 0.98875,0.908591 1.48313,2.004247 1.48313,3.286964 0,1.296079 -0.49438,2.405095 -1.48313,3.327048 -0.9754,0.908591 -2.15791,1.362887 -3.54752,1.362887 z"
             style="font-weight:800;font-size:50.8px;line-height:0;font-family:Inter;-inkscape-font-specification:'Inter Ultra-Bold';letter-spacing:-3.20146px;fill:#079a3b;fill-opacity:0.397129;stroke-width:0.293956"
             id="path3" />
          <path
             d="m 157.3053,88.260136 c -1.03419,0 -1.92279,-0.341383 -2.6658,-1.024148 -0.743,-0.692805 -1.11451,-1.52618 -1.11451,-2.500125 0,-0.963903 0.37151,-1.787238 1.11451,-2.470003 0.74301,-0.692805 1.63161,-1.039208 2.6658,-1.039208 1.04423,0 1.93283,0.346403 2.6658,1.039208 0.743,0.682765 1.11451,1.5061 1.11451,2.470003 0,0.973945 -0.37151,1.80732 -1.11451,2.500125 -0.73297,0.682765 -1.62157,1.024148 -2.6658,1.024148 z"
             style="font-weight:800;font-size:50.8px;line-height:0;font-family:Inter;-inkscape-font-specification:'Inter Ultra-Bold';letter-spacing:-3.20146px;fill:#08a941;fill-opacity:1;stroke-width:0.220894"
             id="path4" />
        </g>
      </g>
    </g>
  </g>
</svg>
